# xmcd CD database file
#
# Track frame offsets:
#	150
#	11187
#	25063
#	40552
#	52311
#	67575
#	81661
#	96512
#	107667
#	119704
#	130876
#
# Disc length: 1939 seconds
#
# Revision: 0
# Processed by: cddbd v1.5.2PL0 Copyright (c) Steve Scherf et al.
# Submitted via: CDex 1.70beta2
#
DISCID=9807910b
DTITLE=Levi Mullen - Texas Honky Tonk
DYEAR=2005
DGENRE=Country
TTITLE0=The Likes Of Me
TTITLE1=Donb't Mention Our Goodbye
TTITLE2=As Quickly As I Can
TTITLE3=Down To Lou'siana
TTITLE4=The Blue And The Gray
TTITLE5=I Just Can't Find The Time
TTITLE6=Hidden Treasures
TTITLE7=Every Time I Hear A Love Song
TTITLE8=We Ain't Got The Blues
TTITLE9=A Two Step Away
TTITLE10=To See Myself This Way
EXTD=YEAR: 2005
EXTT0=
EXTT1=
EXTT2=
EXTT3=
EXTT4=
EXTT5=
EXTT6=
EXTT7=
EXTT8=
EXTT9=
EXTT10=
PLAYORDER=
